<?xml version="1.0" encoding="UTF-8"?>
<svg id="_레이어_1" data-name="레이어 1" xmlns="http://www.w3.org/2000/svg" viewBox="0 0 1044 1005" xmlns:c2pa="http://c2pa.org/manifest"><defs>
    <style>
      .cls-1 {
        fill: #133570;
      }

      .cls-2 {
        fill: #8cc3dd;
      }
    </style>
  </defs>
  <g id="_생성형_오브젝트" data-name="생성형 오브젝트">
    <polygon class="cls-1" points="537.82 589.15 742.93 589.01 743.07 571.29 754.94 571.29 764.6 571.29 764.57 608.74 542.8 608.71 451.03 660.44 450.96 608.72 226.12 608.55 226.06 344.56 764.6 344.68 764.65 388.19 743.01 388.18 743.01 371.27 743.01 364.67 247.83 364.7 247.88 589.15 471.67 589.16 471.79 626.4 537.82 589.15"/>
    <g>
      <polygon class="cls-2" points="673.39 548.62 560.51 548.65 560.5 515.92 651.62 515.91 651.69 508.34 559.91 508.33 559.91 495.08 605.96 495.08 605.89 486.26 552.32 486.3 552.32 471.16 680.46 471.13 680.46 486.28 627.04 486.26 627.06 495.09 672.43 495.1 672.44 527.98 581.21 527.97 581.25 535.48 673.36 535.43 673.39 548.62"/>
      <polygon class="cls-2" points="673.31 450.34 673.38 463.48 560.53 463.48 560.52 430.5 651.47 430.45 651.67 423.35 560.01 423.29 560.02 409.62 672.45 409.62 672.43 442.83 581.31 442.85 581.24 450.09 585.79 450.3 673.31 450.34"/>
    </g>
    <polygon class="cls-2" points="810.91 469.04 811.07 487.36 696.69 487.39 696.7 439.68 787.73 439.69 787.69 427.74 696.79 427.71 696.64 409.64 808.63 409.62 808.62 457 779.77 457.01 717.77 456.9 717.77 469.03 810.91 469.04"/>
    <polygon class="cls-1" points="393.73 457.36 303.79 457.36 303.8 469.15 397.31 469.15 397.33 487.39 282.65 487.38 282.72 409.94 395.04 409.95 395.08 428.26 303.8 428.26 303.79 440.05 393.72 440.04 393.73 457.36"/>
    <path class="cls-1" d="M350.16,548.18h-21.67l-.03-27.6h-53.23v-19.24s128.42.02,128.42.02l.03,19.22c-3.16,0-5.84-.05-8.89,0h-44.65l.03,27.6Z"/>
    <polygon class="cls-2" points="764.83 548.31 743.13 548.37 743.15 520.83 689.78 520.82 689.78 501.35 817.94 501.34 817.94 520.84 764.83 520.78 764.83 548.31"/>
    <rect class="cls-1" x="519.54" y="409.94" width="19.69" height="138.25"/>
    <path class="cls-1" d="M498.26,412.78l-11.03-.07-.04,51.87-14.92-.06v-48.95s-18.98.01-18.98.01l-.04,42.58h-17.69s0-42.64,0-42.64l-19.31.07.02,125.47h56s.05-56.79.05-56.79h14.89s.01,61.17.01,61.17h19.27s0-132.75,0-132.75l-8.22.1ZM453.34,521.31h-17.78v-43.58h17.78v43.58Z"/>
  </g>
</svg>